<?xml version="1.0" encoding="UTF-8"?>
<svg width="111px" height="31px" viewBox="0 0 111 31" version="1.1" xmlns="http://www.w3.org/2000/svg" xmlns:xlink="http://www.w3.org/1999/xlink">
    <!-- Generator: Sketch 52.6 (67491) - http://www.bohemiancoding.com/sketch -->
    <title>分组</title>
    <desc>Created with Sketch.</desc>
    <defs>
        <polygon id="path-1" points="0.0339673844 0 21.7400726 0 21.7400726 4.88258635 0.0339673844 4.88258635"></polygon>
    </defs>
    <g id="【需求】4.画师列表-copy" stroke="none" stroke-width="1" fill="none" fill-rule="evenodd">
        <g id="5.作品列表-new-copy" transform="translate(-80.000000, -820.000000)">
            <g id="topbar-copy-3" transform="translate(0.000000, 805.000000)">
                <g id="right" transform="translate(80.000000, 11.000000)">
                    <g id="分组" transform="translate(0.000000, 4.000000)">
                        <path d="M36.7375,5.3447 C36.2865,5.0927 34.3415,4.5047 34.3415,4.5047 C34.3415,4.5047 33.6935,2.0087 33.3905,1.4237 C33.2035,1.0637 33.0905,0.8927 32.8665,0.9107 C32.6425,0.9297 32.5525,1.1287 32.3835,1.5187 C32.1285,2.1077 31.5985,4.4327 31.5985,4.4327 C31.5985,4.4327 29.6365,5.0407 29.0535,5.3487 C28.7085,5.5307 28.5335,5.6137 28.5205,5.8427 C28.5085,6.0717 28.6645,6.1397 28.9895,6.3217 C29.5645,6.6427 31.6295,7.2597 31.6295,7.2597 C31.6295,7.2597 32.2805,10.0957 32.5865,10.6857 C32.7725,11.0457 32.8705,11.2167 33.0945,11.1987 C33.3185,11.1797 33.4235,10.9807 33.5925,10.5907 C33.8635,9.9677 34.3935,7.1447 34.3935,7.1447 C34.3935,7.1447 36.2235,6.5547 36.6735,6.3177 C37.0185,6.1357 37.1945,6.0687 37.2065,5.8387 C37.2185,5.6107 37.0625,5.5277 36.7375,5.3447" id="Fill-1" fill="#02BDD1"></path>
                        <g transform="translate(6.000000, 0.000400)">
                            <mask id="mask-2" fill="white">
                                <use xlink:href="#path-1"></use>
                            </mask>
                            <g id="Clip-4"></g>
                            <path d="M0.5393,4.4234 C0.8613,4.9504 1.3073,4.9884 1.9153,4.7164 C7.6443,1.6794 15.5383,2.3744 20.3603,4.1884 C20.7603,4.3234 21.2173,4.2474 21.4383,3.7614 L21.7043,2.8534 C21.8003,2.4454 21.7213,1.9804 21.2423,1.8194 C14.7523,-0.7796 5.9123,-0.6096 0.5483,2.4214 C0.2123,2.5644 -0.1107,3.0264 0.1023,3.6294 L0.5393,4.4234 Z" id="Fill-3" fill="#02BDD1" mask="url(#mask-2)"></path>
                        </g>
                        <path d="M33.8523,13.3105 L32.8033,13.4385 C32.3393,13.5285 32.1793,13.9065 32.2333,14.4275 C32.2333,14.4275 32.2623,15.6955 32.2313,16.4115 C31.9973,21.7955 29.7543,24.6395 27.9983,25.8965 C26.1553,27.2155 23.3543,28.4665 18.0783,28.4665 C12.8023,28.4665 9.0363,27.4255 6.5753,25.1465 C4.0213,22.7825 2.5813,19.4105 2.6313,15.5705 C2.6603,13.3575 2.9753,12.0935 3.4613,10.5895 C3.5463,10.2065 3.4803,9.7835 3.0823,9.6415 L1.9233,9.2465 C1.4963,9.1325 1.1643,9.3885 1.0563,9.6615 C0.4103,11.2885 0.0433,13.7075 0.0043,15.5115 C-0.0947,20.0535 1.5993,24.2375 4.6213,26.9315 C8.5673,30.4505 13.7023,30.9995 18.0783,30.9995 C21.2633,30.9995 25.3603,30.2105 27.1823,29.4635 L29.8133,29.9865 C30.5683,30.1095 31.2003,30.1645 31.6223,29.7365 C32.0583,29.2925 32.0193,28.7905 32.0073,27.8975 L31.8793,25.4525 C33.5143,22.7875 34.6313,19.8545 34.7613,16.5345 C34.8123,15.2435 34.7043,13.8725 34.7043,13.8725 C34.6603,13.4655 34.3013,13.2515 33.8523,13.3105" id="Fill-5" fill="#02BDD1"></path>
                        <path d="M10.0427,12.9922 C10.0427,12.0572 10.7987,11.3022 11.7327,11.3022 C12.6667,11.3022 13.4227,12.0572 13.4227,12.9922 L13.4227,14.7802 C13.4227,15.7142 12.6667,16.4712 11.7327,16.4712 C10.7987,16.4712 10.0427,15.7142 10.0427,14.7802 L10.0427,12.9922 Z M20.0517,13.2842 L23.0937,11.5912 C23.5177,11.3262 24.1267,11.3412 24.3337,11.6802 C24.5877,12.1022 24.4567,12.4972 24.0747,12.7892 L22.3827,13.9602 L24.1007,14.9912 C24.4817,15.2272 24.5337,15.6662 24.3537,16.0072 C24.2097,16.2772 23.7937,16.4182 23.4487,16.3092 L20.1287,14.8582 C19.8347,14.7142 19.6427,14.4212 19.6267,14.0942 C19.6107,13.7662 19.7737,13.4562 20.0517,13.2842 Z M11.1007,24.8942 C12.2047,25.2762 14.0707,25.7842 17.5007,25.7842 C20.9327,25.7842 22.7977,25.2762 23.9017,24.8942 C28.3307,23.3642 29.9027,18.9132 29.9027,15.5672 C29.9027,12.2212 28.3307,7.7702 23.9017,6.2412 C22.7977,5.8602 20.9327,5.3522 17.5007,5.3522 C14.0707,5.3522 12.2047,5.8602 11.1007,6.2412 C6.6717,7.7702 5.0997,12.2212 5.0997,15.5682 C5.0997,18.9152 6.6717,23.3642 11.1007,24.8942 Z" id="Fill-7" fill="#02BDD1"></path>
                        <path d="M88.7478,14.9365 L86.7828,14.9365 C86.5208,14.9365 86.3088,15.1485 86.3088,15.4105 L86.3088,22.4815 C86.3088,24.3405 85.5628,25.1595 83.9498,25.2555 C83.6378,25.2745 83.4208,25.4255 83.4208,25.8195 L83.4208,27.3605 C83.4208,27.6155 83.6248,27.8325 83.8798,27.8375 C87.3728,27.9155 89.2218,26.0595 89.2218,22.4815 L89.2218,15.4105 C89.2218,15.1485 89.0098,14.9365 88.7478,14.9365" id="Fill-9" fill="#2C2C2C"></path>
                        <path d="M93.907,14.9346 L91.942,14.9346 C91.68,14.9346 91.468,15.1466 91.468,15.4076 L91.456,22.8336 C91.456,23.0946 91.669,23.3086 91.93,23.3086 L93.895,23.3086 C94.157,23.3086 94.368,23.0966 94.369,22.8346 L94.381,15.4096 C94.381,15.1486 94.168,14.9346 93.907,14.9346" id="Fill-11" fill="#2C2C2C"></path>
                        <path d="M85.9431,11.1611 C85.9431,12.1641 86.7561,12.9771 87.7591,12.9771 C88.7621,12.9771 89.5751,12.1641 89.5751,11.1611 C89.5751,10.1581 88.7621,9.3451 87.7591,9.3451 C86.7561,9.3451 85.9431,10.1581 85.9431,11.1611" id="Fill-13" fill="#2C2C2C"></path>
                        <path d="M91.1023,11.1611 C91.1023,12.1641 91.9153,12.9771 92.9183,12.9771 C93.9213,12.9771 94.7343,12.1641 94.7343,11.1611 C94.7343,10.1581 93.9213,9.3451 92.9183,9.3451 C91.9153,9.3451 91.1023,10.1581 91.1023,11.1611" id="Fill-15" fill="#2C2C2C"></path>
                        <path d="M67.6877,10.4375 L65.7227,10.4375 C65.4607,10.4375 65.2487,10.6495 65.2487,10.9115 L65.2487,18.0165 C65.2487,19.2615 64.4077,20.3945 63.1887,20.6465 C61.5087,20.9945 60.0197,19.7185 60.0197,18.0975 L60.0197,10.9115 C60.0197,10.6495 59.8067,10.4375 59.5457,10.4375 L57.5797,10.4375 C57.3187,10.4375 57.1057,10.6495 57.1057,10.9115 L57.1057,17.7875 C57.1057,20.5955 59.1207,23.1025 61.9067,23.4595 C65.2767,23.8925 68.1617,21.2665 68.1617,17.9795 L68.1617,10.9115 C68.1617,10.6495 67.9497,10.4375 67.6877,10.4375" id="Fill-17" fill="#2C2C2C"></path>
                        <path d="M49.9568,9.6074 C48.9108,9.6074 47.6018,9.9924 46.7268,10.9194 L46.7268,5.6344 C46.7268,5.3734 46.5148,5.1604 46.2528,5.1604 L44.2878,5.1604 C44.0258,5.1604 43.8138,5.3734 43.8138,5.6344 L43.8138,22.8344 C43.8138,23.0954 44.0258,23.3074 44.2878,23.3074 L46.2528,23.3074 C46.5138,23.3074 46.7258,23.0964 46.7268,22.8354 L46.7338,16.5894 C46.7338,13.5864 48.2818,12.2854 49.9348,12.4654 C51.3098,12.6174 51.9558,13.7854 51.9558,15.2534 L51.9558,22.8344 C51.9558,23.0954 52.1678,23.3074 52.4298,23.3074 L54.3948,23.3074 C54.6568,23.3074 54.8688,23.0954 54.8688,22.8344 L54.8688,15.1344 C54.8688,12.2384 53.2888,9.6074 49.9568,9.6074" id="Fill-19" fill="#2C2C2C"></path>
                        <path d="M77.0632,20.5293 L76.9892,20.5293 C74.7502,20.5293 72.9192,18.6983 72.9192,16.4593 C72.9192,14.2203 74.7502,12.3893 76.9892,12.3893 L77.0632,12.3893 C79.3022,12.3893 81.1332,14.2203 81.1332,16.4593 C81.1332,18.6983 79.3022,20.5293 77.0632,20.5293 M77.0262,9.4123 C73.1442,9.4123 69.9852,12.5703 69.9852,16.4533 L69.9852,16.4663 L69.9852,16.4733 C69.9902,20.3523 73.1462,23.5073 77.0262,23.5073 C78.6292,23.5073 80.2662,22.8253 81.4992,21.8663 L83.1672,22.7113 C83.2392,22.7363 83.3142,22.7493 83.3902,22.7493 C83.7642,22.7493 84.0672,22.5303 84.0672,22.1563 L84.0672,16.4533 C84.0672,12.5703 80.9092,9.4123 77.0262,9.4123" id="Fill-21" fill="#2C2C2C"></path>
                        <path d="M103.695,20.5293 L103.62,20.5293 C101.382,20.5293 99.551,18.6983 99.551,16.4593 C99.551,14.2203 101.382,12.3893 103.62,12.3893 L103.695,12.3893 C105.933,12.3893 107.764,14.2203 107.764,16.4593 C107.764,18.6983 105.933,20.5293 103.695,20.5293 M103.658,9.4123 C99.775,9.4123 96.616,12.5703 96.616,16.4533 L96.616,16.4663 L96.616,16.4733 L96.617,16.4733 C96.621,20.3523 99.778,23.5073 103.658,23.5073 C105.26,23.5073 106.898,22.8253 108.131,21.8663 L109.799,22.7113 C109.871,22.7363 109.946,22.7493 110.022,22.7493 C110.395,22.7493 110.699,22.5303 110.699,22.1563 L110.699,16.4533 C110.699,12.5703 107.54,9.4123 103.658,9.4123" id="Fill-23" fill="#2C2C2C"></path>
                    </g>
                </g>
            </g>
        </g>
    </g>
</svg>