<?xml version="1.0" standalone="no"?><!DOCTYPE svg PUBLIC "-//W3C//DTD SVG 1.1//EN" "http://www.w3.org/Graphics/SVG/1.1/DTD/svg11.dtd">
<svg t="1495680816403" class="icon" style="" viewBox="0 0 1024 1024" version="1.1" xmlns="http://www.w3.org/2000/svg" p-id="3556" xmlns:xlink="http://www.w3.org/1999/xlink" width="64" height="64">
  <defs>
    <style type="text/css">
      .uyun-show-firewall{
        fill:#c86f68}
    </style></defs>
  <path class="uyun-show-firewall" d="M939.070 1010.461h-525.889c-11.295 0-20.455-9.049-20.455-20.214v-127.085c0-11.163 9.159-20.214 20.455-20.214h525.889c11.302 0 20.455 9.053 20.455 20.214v127.085c0 11.169-9.153 20.214-20.455 20.214zM937.61 636.439c11.297 0 20.459 9.060 20.459 20.223v127.073c0 11.181-9.161 20.223-20.459 20.223h-245.419c-11.293 0-20.455-9.043-20.455-20.223v-127.073c0-11.163 9.161-20.223 20.455-20.223h245.419zM939.070 600.348h-525.889c-11.295 0-20.455-9.053-20.455-20.214v-127.088c0-11.163 9.159-20.212 20.455-20.212h525.889c11.302 0 20.455 9.046 20.455 20.212v127.088c0 11.163-9.153 20.218-20.455 20.218zM598.7 395.274v-20.212c-3.099-66.489-28.402-119.989-35.057-99.646-6.658 20.346-21.91 50.542-21.91 50.542-40.681 57.787-33.6-137.2-33.6-137.2-101.616 88.030-82.853 194.4-80.555 205.539l-74.288-0.467c0 0-120.649-195.799 189.902-378.355 0 0-10.639 74.739 81.812 138.637 3.266 2.497 17.235 14.827 23.372 23.106 59.375 80.223 42.622 201.444 27.755 218.053h-77.434zM350.362 453.046v127.088c0 11.163-9.153 20.214-20.45 20.214h-245.422c-11.289 0-20.45-9.053-20.45-20.218v-127.088c0-11.163 9.159-20.212 20.45-20.212h245.422c11.297 0 20.45 9.049 20.45 20.212zM84.49 636.439h525.897c11.295 0 20.455 9.060 20.455 20.223v127.073c0 11.181-9.159 20.223-20.455 20.223h-525.897c-11.289 0-20.45-9.043-20.45-20.223v-127.073c0.004-11.163 9.161-20.223 20.45-20.223zM84.49 842.956h245.422c11.297 0 20.45 9.053 20.45 20.214v127.085c0 11.165-9.159 20.214-20.45 20.214h-245.422c-11.289 0-20.45-9.049-20.45-20.214v-127.085c0.004-11.163 9.161-20.214 20.45-20.214z" p-id="3557"></path>
</svg>