<?xml version="1.0" standalone="no"?><!DOCTYPE svg PUBLIC "-//W3C//DTD SVG 1.1//EN" "http://www.w3.org/Graphics/SVG/1.1/DTD/svg11.dtd">
<svg t="1495680810320" class="icon" style="" viewBox="0 0 1024 1024" version="1.1" xmlns="http://www.w3.org/2000/svg" p-id="3416" xmlns:xlink="http://www.w3.org/1999/xlink" width="64" height="64">
<defs>
<style type="text/css">
  .uyun-show-mainframe{
    fill:#a4fff7  
  }
  </style></defs>
  <path class="uyun-show-mainframe" d="M937.589 365.691h-860.332c-59.126 0-77.086 30.321-77.086 69.778v150.122c0 57.971 30.229 69.901 77.086 69.901h860.332c47.823 0 77.086-23.022 77.086-69.778v-150.122c0.001-49.725-21.702-69.901-77.084-69.901v0zM947.359 588.383h-877.419v-154.429h877.42l-0.001 154.429z" p-id="3417"></path>
  <path class="uyun-show-mainframe" d="M753.539 537.803h102.54c7.056 0 12.847-5.43 12.847-12.093v-24.183c0-6.666-5.73-12.093-12.847-12.093h-102.54c-7.056 0-12.789 5.369-12.789 12.093v24.183c0 6.666 5.73 12.093 12.789 12.093v0z" p-id="3418"></path>
  <path class="uyun-show-mainframe" d="M143.506 489.995h48.367v48.366h-48.367v-48.366z" p-id="3419"></path>
  <path class="uyun-show-mainframe" d="M241.39 488.87h48.367v48.366h-48.367v-48.366z" p-id="3420"></path>
  <path class="uyun-show-mainframe" d="M341.716 489.995h48.367v48.366h-48.367v-48.366z" p-id="3421"></path>
  <path class="uyun-show-mainframe" d="M438.371 491.2h48.367v48.367h-48.367v-48.367z" p-id="3422"></path>
  <path class="uyun-show-mainframe" d="M937.589 729.654h-860.332c-59.126 0-77.086 30.321-77.086 69.778v150.122c0 57.97 30.229 69.9 77.086 69.9h860.332c47.823 0 77.086-23.024 77.086-69.778v-150.122c0.001-49.718-21.702-69.9-77.084-69.9v0zM947.359 952.347h-877.419v-154.429h877.42l-0.001 154.429z" p-id="3423"></path>
  <path class="uyun-show-mainframe" d="M753.539 901.763h102.54c7.056 0 12.847-5.428 12.847-12.091v-24.187c0-6.666-5.73-12.091-12.847-12.091h-102.54c-7.056 0-12.789 5.369-12.789 12.091v24.187c0 6.666 5.73 12.091 12.789 12.091v0z" p-id="3424"></path>
  <path class="uyun-show-mainframe" d="M143.506 853.955h48.367v48.367h-48.367v-48.367z" p-id="3425"></path>
  <path class="uyun-show-mainframe" d="M241.39 852.834h48.367v48.366h-48.367v-48.366z" p-id="3426"></path>
  <path class="uyun-show-mainframe" d="M341.716 853.955h48.367v48.367h-48.367v-48.367z" p-id="3427"></path>
  <path class="uyun-show-mainframe" d="M438.371 855.165h48.367v48.367h-48.367v-48.367z" p-id="3428"></path>
  <path class="uyun-show-mainframe" d="M937.589 2.941h-860.332c-59.126 0-77.086 30.321-77.086 69.778v150.122c0 57.971 30.229 69.901 77.086 69.901h860.332c47.823 0 77.086-23.024 77.086-69.778v-150.122c0.001-49.728-21.702-69.901-77.084-69.901v0zM947.359 225.629h-877.419v-154.429h877.42l-0.001 154.429z" p-id="3429"></path>
  <path class="uyun-show-mainframe" d="M753.539 173.837h102.54c7.056 0 12.847-5.428 12.847-12.091v-24.187c0-6.666-5.73-12.091-12.847-12.091h-102.54c-7.056 0-12.789 5.369-12.789 12.091v24.187c0 6.666 5.73 12.091 12.789 12.091v0z" p-id="3430"></path>
  <path class="uyun-show-mainframe" d="M143.506 126.032h48.367v48.366h-48.367v-48.366z" p-id="3431"></path>
  <path class="uyun-show-mainframe" d="M241.39 124.907h48.367v48.367h-48.367v-48.367z" p-id="3432"></path>
  <path class="uyun-show-mainframe" d="M341.716 126.032h48.367v48.366h-48.367v-48.366z" p-id="3433"></path>
  <path class="uyun-show-mainframe" d="M438.371 127.238h48.367v48.367h-48.367v-48.367z" p-id="3434"></path>
</svg>