<?xml version="1.0" standalone="no"?>
<!DOCTYPE svg PUBLIC "-//W3C//DTD SVG 1.1//EN" "http://www.w3.org/Graphics/SVG/1.1/DTD/svg11.dtd">
<svg t="1495522434796" class="icon" viewBox="0 0 1024 1024" version="1.1" xmlns="http://www.w3.org/2000/svg" p-id="2962" xmlns:xlink="http://www.w3.org/1999/xlink" width="64" height="64">
  <defs>
  <style type="text/css">
    .uyun-show-host1 {
       fill:#a4fff7
    }
    .uyun-show-host2 {
       fill:#579ec7
    }
  </style>
</defs>
  <path class="uyun-show-host1" d="M680.676 204.097h-347.371c-34.407 0-62.301 27.894-62.301 62.301v643.3c0 34.407 27.894 62.301 62.301 62.301h347.371c34.407 0 62.301-27.894 62.301-62.301v-643.3c0-34.407-27.894-62.301-62.301-62.301zM506.99 843.146c-14.597 0-26.429-11.833-26.429-26.429s11.833-26.429 26.429-26.429c14.597 0 26.429 11.833 26.429 26.429 0 14.597-11.833 26.429-26.429 26.429zM506.99 766.687c-14.597 0-26.429-11.833-26.429-26.429s11.833-26.429 26.429-26.429c14.597 0 26.429 11.833 26.429 26.429 0 14.597-11.833 26.429-26.429 26.429zM506.99 691.172c-27.63 0-50.033-22.403-50.033-50.033s22.397-50.033 50.028-50.033c27.63 0 50.033 22.397 50.033 50.033 0 27.63-22.403 50.033-50.033 50.033zM669.351 511.822h-324.716v-77.402h324.716v77.402zM669.351 379.668h-324.716v-77.402h324.716v77.402z" p-id="2963" fill="#bfbfbf"></path>
  <path class="uyun-show-host1" d="M356.633 328.413h300.048v45.646h-300.048v-45.646z" p-id="2964" fill="#bfbfbf"></path>
  <path class="uyun-show-host1" d="M356.633 470.382h300.048v45.644h-300.048v-45.644z" p-id="2965" fill="#bfbfbf"></path>
  <path class="uyun-show-host2" d="M121.255 94.397h292.114v53.543h66.235v-85.81c0-30.953-25.091-56.046-56.046-56.046h-312.496c-30.953 0-56.046 25.093-56.046 56.046v578.714c0 30.951 25.093 56.046 56.046 56.046h130.064v-413.977h-119.873v-69.632h123.628c5.995-20.24 18.813-37.543 35.798-49.253h-159.424v-69.633z" p-id="2966" fill="#bfbfbf"></path>
  <path class="uyun-show-host2" d="M96.021 126.987h267.311v39.266h-267.311v-39.266z" p-id="2967" fill="#bfbfbf"></path>
  <path class="uyun-show-host2" d="M96.021 253.851h104.209v39.266h-104.209v-39.266z" p-id="2968" fill="#bfbfbf"></path>
  <path class="uyun-show-host2" d="M921.068 6.084h-312.493c-30.953 0-56.046 25.093-56.046 56.046v85.811h66.235v-53.543h292.119v69.632h-159.426c16.978 11.707 29.799 29.012 35.798 49.253h123.628v69.632h-119.872v413.977h130.061c30.953 0 56.042-25.093 56.042-56.046v-578.713c0.001-30.953-25.093-56.046-56.042-56.046z" p-id="2969" fill="#bfbfbf"></path>
  <path class="uyun-show-host2" d="M648.007 126.987h267.31v39.266h-267.31v-39.266z" p-id="2970" fill="#bfbfbf"></path>
  <path class="uyun-show-host2" d="M811.117 253.851h104.209v39.266h-104.209v-39.266z" p-id="2971" fill="#bfbfbf"></path>
</svg>