<?xml version="1.0" standalone="no"?><!DOCTYPE svg PUBLIC "-//W3C//DTD SVG 1.1//EN" "http://www.w3.org/Graphics/SVG/1.1/DTD/svg11.dtd">
<svg t="1495680783946" class="icon" style="" viewBox="0 0 1024 1024" version="1.1" xmlns="http://www.w3.org/2000/svg" p-id="3158" xmlns:xlink="http://www.w3.org/1999/xlink" width="64" height="64">
  <defs>
    <style type="text/css">
      .uyun-show-rouoter{
        fill:#92c8e7
       }
</style></defs>
<path class="uyun-show-rouoter" d="M172.373 734.207h96.482c13.54 0 24.577-11.037 24.577-24.577v-22.985c0-13.538-11.037-24.577-24.577-24.577h-96.482c-13.54 0-24.577 11.037-24.577 24.577v22.985c0 13.54 10.924 24.577 24.577 24.577zM172.373 879.275h96.482c13.54 0 24.577-11.037 24.577-24.577v-22.985c0-13.54-11.037-24.577-24.577-24.577h-96.482c-13.54 0-24.577 11.037-24.577 24.577v22.985c0 13.653 10.924 24.577 24.577 24.577zM401.067 734.207h0.797c19.911 0 36.065-16.151 36.065-36.069v-0.112c0-19.911-16.158-36.065-36.065-36.065h-0.797c-19.911 0-36.065 16.151-36.065 36.065v0.112c0.112 19.911 16.158 36.069 36.065 36.069zM401.067 879.275h0.797c19.911 0 36.065-16.158 36.065-36.069v-0.112c0-19.911-16.158-36.069-36.065-36.069h-0.797c-19.911 0-36.065 16.158-36.065 36.069v0.112c0.112 20.025 16.158 36.069 36.065 36.069zM546.704 734.207h0.797c19.911 0 36.065-16.151 36.065-36.069v-0.112c0-19.911-16.158-36.065-36.065-36.065h-0.797c-19.911 0-36.065 16.151-36.065 36.065v0.112c0.112 19.911 16.158 36.069 36.065 36.069zM546.704 879.275h0.797c19.911 0 36.065-16.158 36.065-36.069v-0.112c0-19.911-16.158-36.069-36.065-36.069h-0.797c-19.911 0-36.065 16.158-36.065 36.069v0.112c0.112 20.025 16.158 36.069 36.065 36.069zM691.314 734.207h0.797c19.911 0 36.069-16.151 36.069-36.069v-0.112c0-19.911-16.158-36.065-36.069-36.065h-0.797c-19.911 0-36.069 16.151-36.069 36.065v0.112c0 19.911 16.158 36.069 36.069 36.069zM691.314 879.275h0.797c19.911 0 36.069-16.158 36.069-36.069v-0.112c0-19.911-16.158-36.069-36.069-36.069h-0.797c-19.911 0-36.069 16.158-36.069 36.069v0.112c0 20.025 16.158 36.069 36.069 36.069zM836.947 734.207h0.797c19.911 0 36.065-16.151 36.065-36.069v-0.112c0-19.911-16.158-36.065-36.065-36.065h-0.797c-19.911 0-36.065 16.151-36.065 36.065v0.112c0 19.911 16.158 36.069 36.065 36.069zM836.947 879.275h0.797c19.911 0 36.065-16.158 36.065-36.069v-0.112c0-19.911-16.158-36.069-36.065-36.069h-0.797c-19.911 0-36.065 16.158-36.065 36.069v0.112c0 20.025 16.158 36.069 36.065 36.069z" fill="" p-id="3159"></path>
<path class="uyun-show-rouoter" d="M1021.838 586.639l-75.319-553.301c-2.505-17.978-17.858-31.403-36.069-31.403h-794.51c-18.091 0-33.452 13.309-36.069 31.289l-77.483 553.415h1.141l-1.483 0.91v392.988c0 22.985 18.659 41.645 41.645 41.645h936.279c22.985 0 41.645-18.659 41.645-41.645v-392.988l-1.251-0.91h1.483zM340.879 138.809l-3.982 64.961h132.778l2.271-74.297h-75.436l115.713-100.125 115.713 100.125h-75.436l2.271 74.297h132.778l-3.982-64.961 161.451 97.28-149.050 101.946-4.21-68.153h-134.826l2.619 87.266h88.178l-135.396 191.828-135.396-191.828h88.178l2.615-87.266h-134.826l-4.21 68.153-149.047-101.946 161.223-97.28zM948.793 949.362h-873.814v-362.723h873.814v362.723z" fill="" p-id="3160"></path>
</svg>