<?xml version="1.0" standalone="no"?><!DOCTYPE svg PUBLIC "-//W3C//DTD SVG 1.1//EN" "http://www.w3.org/Graphics/SVG/1.1/DTD/svg11.dtd">
<svg t="1495680604561" class="icon" style="" viewBox="0 0 1024 1024" version="1.1" xmlns="http://www.w3.org/2000/svg" p-id="3030" xmlns:xlink="http://www.w3.org/1999/xlink" width="64" height="64">
<defs>
<style type="text/css">
  .uyun-show-server{
    fill:#a4fff7
   }
</style>
  </defs>
  <path class="uyun-show-server" d="M1016.759 215.284c-8.581-63.26-104.607-102.666-116.786-107.355l-182.067-73.939c-8.438-2.695-17.967 0.669-22.558 8.281-4.642 7.538-3.196 17.242 3.294 23.283 31.143 28.649 41.824 85.543 42.123 85.543 0 8.334-1.897 705.017-1.897 723.030 0 50.858-37.232 81.202-39.029 82.598-7.184 5.588-9.283 15.375-5.038 23.258 3.344 6.387 10.032 10.23 17.118 10.23 1.798 0 3.597-0.251 5.341-0.75 8.535-2.393 157.113-58.443 171.885-63.284 128.217-41.723 129.611-115.663 129.611-118.757 0.399-239.913 1.849-370.199 2.695-445.662 1.098-103.206 1.147-105.205-4.693-146.484zM531.346 25.156h-399.67c-71.968 0-130.412 56.997-130.412 127.069v718.813c0 70.021 58.443 127.021 130.412 127.021h399.67c71.869 0 130.361-56.997 130.361-127.021v-718.813c-0.001-70.073-58.494-127.069-130.361-127.069zM310.251 840.742c-43.319 0-78.555-34.287-78.555-76.442 0-42.196 35.236-76.538 78.557-76.538 43.322 0 78.656 34.338 78.656 76.538 0 42.145-35.334 76.442-78.656 76.442zM557.998 509.050c0 32.24-24.459 58.466-54.599 58.466h-343.875c-30.149 0-54.701-26.227-54.701-58.466v-138.943h453.173v138.943zM557.998 332.473h-453.173v-139.046c0-32.24 24.553-58.491 54.701-58.491h343.875c30.143 0 54.599 26.252 54.599 58.491v139.046z" p-id="3031"></path>
</svg>