<?xml version="1.0" standalone="no"?><!DOCTYPE svg PUBLIC "-//W3C//DTD SVG 1.1//EN" "http://www.w3.org/Graphics/SVG/1.1/DTD/svg11.dtd">
<svg t="1495680803963" class="icon" style="" viewBox="0 0 1024 1024" version="1.1" xmlns="http://www.w3.org/2000/svg" p-id="3287" xmlns:xlink="http://www.w3.org/1999/xlink" width="64" height="64">
<defs><style type="text/css">
  .uyun-show-switch{
    fill:#92c8e7 
   }
</style></defs>
  <path class="uyun-show-switch" d="M172.487 734.208h96.484c13.54 0 24.577-11.037 24.577-24.577v-22.985c0-13.538-11.037-24.577-24.577-24.577h-96.484c-13.54 0-24.577 11.037-24.577 24.577v22.985c0 13.54 11.037 24.577 24.577 24.577zM172.487 879.275h96.484c13.54 0 24.577-11.037 24.577-24.577v-22.985c0-13.54-11.037-24.577-24.577-24.577h-96.484c-13.54 0-24.577 11.037-24.577 24.577v22.985c0 13.653 11.037 24.577 24.577 24.577zM401.294 734.208h0.797c19.911 0 36.065-16.151 36.065-36.069v-0.112c0-19.911-16.158-36.065-36.065-36.065h-0.797c-19.911 0-36.065 16.151-36.065 36.065v0.112c0 19.911 16.158 36.069 36.065 36.069zM401.294 879.275h0.797c19.911 0 36.065-16.158 36.065-36.069v-0.112c0-19.911-16.158-36.069-36.065-36.069h-0.797c-19.911 0-36.065 16.158-36.065 36.069v0.112c0 20.025 16.158 36.069 36.065 36.069zM546.93 734.208h0.797c19.911 0 36.065-16.151 36.065-36.069v-0.112c0-19.911-16.158-36.065-36.065-36.065h-0.797c-19.911 0-36.065 16.151-36.065 36.065v0.112c0 19.911 16.158 36.069 36.065 36.069zM546.93 879.275h0.797c19.911 0 36.065-16.158 36.065-36.069v-0.112c0-19.911-16.158-36.069-36.065-36.069h-0.797c-19.911 0-36.065 16.158-36.065 36.069v0.112c0 20.025 16.158 36.069 36.065 36.069zM691.428 734.208h0.797c19.911 0 36.065-16.151 36.065-36.069v-0.112c0-19.911-16.158-36.065-36.065-36.065h-0.797c-19.911 0-36.065 16.151-36.065 36.065v0.112c0 19.911 16.158 36.069 36.065 36.069zM691.428 879.275h0.797c19.911 0 36.065-16.158 36.065-36.069v-0.112c0-19.911-16.158-36.069-36.065-36.069h-0.797c-19.911 0-36.065 16.158-36.065 36.069v0.112c0 20.025 16.158 36.069 36.065 36.069zM837.063 734.208h0.797c19.911 0 36.065-16.151 36.065-36.069v-0.112c0-19.911-16.158-36.065-36.065-36.065h-0.797c-19.911 0-36.065 16.151-36.065 36.065v0.112c0 19.911 16.158 36.069 36.065 36.069zM837.063 879.275h0.797c19.911 0 36.065-16.158 36.065-36.069v-0.112c0-19.911-16.158-36.069-36.065-36.069h-0.797c-19.911 0-36.065 16.158-36.065 36.069v0.112c0 20.025 16.158 36.069 36.065 36.069z" fill="" p-id="3288"></path>
  <path class="uyun-show-switch" d="M1021.725 586.639l-75.319-553.301c-2.505-17.978-17.858-31.403-36.069-31.403h-794.51c-18.091 0-33.452 13.309-36.069 31.289l-77.483 553.415h0.91l-0.91 0.91v392.988c0 22.985 18.659 41.645 41.641 41.645h936.279c22.985 0 41.641-18.659 41.641-41.645v-392.988l-0.91-0.91h0.797zM474.908 76.573l-4.665 75.092h353.62l0.91 76.341h-359.197l-4.893 78.734-228.578-117.76 242.803-112.413zM224.483 355.555h358.172l3.186-86.812 240.527 121.173-249.741 127.316 2.959-79.075h-364.090l8.989-82.604zM948.907 949.362h-873.814v-362.723h873.814v362.723z" fill="" p-id="3289"></path>
</svg>