<?xml version="1.0" standalone="no"?><!DOCTYPE svg PUBLIC "-//W3C//DTD SVG 1.1//EN" "http://www.w3.org/Graphics/SVG/1.1/DTD/svg11.dtd">
<svg t="1495767245278" class="icon" style="" viewBox="0 0 1024 1024" version="1.1" xmlns="http://www.w3.org/2000/svg" p-id="4502" xmlns:xlink="http://www.w3.org/1999/xlink" width="64" height="64">
  <defs>
    <style type="text/css">
      .uyun-show-server-host004{
        fill:#92c8e7}
    </style>
  </defs>
  <path class="uyun-show-server-host004" d="M1017.98912 626.88256v252.99968c0 34.7904-28.46208 63.25248-63.24224 63.25248H69.25824c-34.78528 0-63.24736-28.4672-63.24736-63.25248v-252.99968h727.36256v-63.24224H6.01088V120.88832c0-34.78528 28.46208-63.24736 63.24736-63.24736h885.49376c34.78016 0 63.24224 28.46208 63.24224 63.24736v442.752h-221.3632v63.24224h221.35808z m-126.4896-442.74176c0-18.97472-12.66176-31.62624-31.63136-31.62624H164.14208c-18.97984 0-31.62624 12.65152-31.62624 31.62624v63.24736c0 18.97472 12.65152 31.62624 31.62624 31.62624h695.72608c18.97984 0 31.63648-12.65152 31.63648-31.62624l-0.00512-63.24736z m-31.63136 284.6208c18.9696 0 31.62112-12.65152 31.62112-31.62112V373.888c0-18.97472-12.65152-31.62112-31.62112-31.62112H164.14208c-18.97984 0-31.62624 12.6464-31.62624 31.62112v63.25248c0 18.9696 12.65152 31.62112 31.62624 31.62112h695.72608z m-600.86272 284.6208c0-18.9696-12.65152-31.62112-31.616-31.62112H164.13696c-18.97984 0-31.62112 12.65152-31.62112 31.62112v63.25248c0 18.97472 12.65152 31.62112 31.62112 31.62112h63.25248c18.97472 0 31.616-12.6464 31.616-31.62112v-63.25248z m94.8736 0v63.25248c0 18.97472 12.65152 31.62112 31.62112 31.62112h474.368c18.9696 0 31.62112-12.6464 31.62112-31.62112v-63.25248c0-18.9696-12.65152-31.62112-31.62112-31.62112h-474.368c-18.9696 0-31.62112 12.64128-31.62112 31.62112z m-94.8736-316.24704H195.75808V373.888h63.24736v63.24736zM195.75808 184.1408h63.24736v63.24736H195.75808V184.1408z" fill="#D0C9C9" p-id="4503"></path>
</svg>