<?xml version="1.0" standalone="no"?><!DOCTYPE svg PUBLIC "-//W3C//DTD SVG 1.1//EN" "http://www.w3.org/Graphics/SVG/1.1/DTD/svg11.dtd">
<svg t="1495762127671" class="icon" style="" viewBox="0 0 1024 1024" version="1.1" xmlns="http://www.w3.org/2000/svg" p-id="1396" xmlns:xlink="http://www.w3.org/1999/xlink" width="64" height="64">
  <defs>
    <style type="text/css">
      .uyun-show-router-host002{
        fill:#aeea0d
      }
    </style></defs>
  <path class="uyun-show-router-host002" d="M512 455.68c-49.152 0-89.088 40.448-89.088 89.088s40.448 89.088 89.088 89.088 89.088-40.448 89.088-89.088c0-48.64-39.936-89.088-89.088-89.088m267.776 89.6c0-147.456-120.832-267.776-267.776-267.776s-267.776 120.32-267.776 267.776c0 98.304 53.76 183.296 134.144 232.448l44.544-75.776c-53.76-31.232-89.088-89.088-89.088-152.064 0-98.304 80.384-178.688 178.688-178.688S691.2 451.584 691.2 549.888c0 67.072-35.84 124.928-89.088 152.064l44.544 75.776c79.872-49.664 133.12-134.144 133.12-232.448M512 98.304c-245.76 0-446.464 201.216-446.464 446.464 0 165.376 89.088 308.224 223.232 384l44.544-75.776c-107.008-62.464-178.688-178.688-178.688-308.224 0-196.608 160.768-357.376 357.376-357.376s357.376 160.768 357.376 357.376c0 134.144-71.68 245.76-178.688 308.224l44.544 75.776c134.144-75.776 223.232-223.232 223.232-384 0-245.248-200.704-446.464-446.464-446.464z" p-id="1397"></path>
</svg>