<?xml version="1.0" standalone="no"?><!DOCTYPE svg PUBLIC "-//W3C//DTD SVG 1.1//EN" "http://www.w3.org/Graphics/SVG/1.1/DTD/svg11.dtd">
<svg t="1495762248651" class="icon" style="" viewBox="0 0 1024 1024" version="1.1" xmlns="http://www.w3.org/2000/svg" p-id="3180" xmlns:xlink="http://www.w3.org/1999/xlink" width="64" height="64">
  
  <defs>
    <style type="text/css">
      .uyun-show-router-host003{
        fill:#1ea2ff
      }
    </style></defs>
  <path class="uyun-show-router-host003" d="M511.999488 0.024559C229.228957 0.024559 0.005117 229.241055 0.005117 512c0 282.749736 229.22384 511.974417 511.994372 511.974417 282.760298 0 511.996418-229.226728 511.996418-511.974417C1023.995907 229.241055 794.759786 0.024559 511.999488 0.024559zM511.999488 976.357933c-256.461274 0-464.365703-207.893864-464.365703-464.357933 0-256.450766 207.902382-464.346677 464.365703-464.346677 256.451041 0 464.3524 207.894887 464.3524 464.346677C976.351888 768.464069 768.450529 976.357933 511.999488 976.357933zM755.807063 560.76054 697.166145 560.76054l58.808747-288.177352c2.57065-13.452383-7.14297-26.284643-21.668373-28.653597-14.546894-2.381234-28.404051 6.607488-30.950141 20.059871l-60.563789 296.772101L381.206388 560.761564l-60.563789-296.772101c-2.54609-13.452383-16.403247-22.441105-30.951164-20.059871-14.522333 2.368954-24.22572 15.201214-21.654046 28.653597l58.798513 288.177352-34.262719 0c-40.392574 0-73.142784 32.734542-73.142784 73.138764l0 73.139787c0 40.403199 32.75021 73.140811 73.142784 73.140811l463.234903 0c40.403831 0 73.143807-32.735565 73.143807-73.140811l0-73.139787C828.949847 593.496106 796.210894 560.76054 755.807063 560.76054zM780.187309 707.038068c0 13.475919-10.927311 24.38027-24.380246 24.38027L292.57216 731.418338c-13.452934 0-24.380246-10.904351-24.380246-24.38027l0-73.139787c0-13.474896 10.929358-24.379247 24.380246-24.379247l463.234903 0c13.452934 0 24.380246 10.904351 24.380246 24.379247L780.187309 707.038068 780.187309 707.038068zM353.524821 633.898281c-20.215219 0-36.570369 16.381086-36.570369 36.569894 0 20.188808 16.35515 36.567847 36.570369 36.567847 20.214196 0 36.570369-16.380062 36.570369-36.567847C390.095189 650.279367 373.739016 633.898281 353.524821 633.898281z" p-id="3181"></path>
</svg>