<?xml version="1.0" standalone="no"?><!DOCTYPE svg PUBLIC "-//W3C//DTD SVG 1.1//EN" "http://www.w3.org/Graphics/SVG/1.1/DTD/svg11.dtd">
<svg t="1495767293259" class="icon" style="" viewBox="0 0 1581 1024" version="1.1" xmlns="http://www.w3.org/2000/svg" p-id="5381" xmlns:xlink="http://www.w3.org/1999/xlink" width="98.8125" height="64">
  <defs>
    <style type="text/css">
      .uyun-show-server-host010{
        fill:#6966fa  }

    </style></defs>
  <path class="uyun-show-server-host010" d="M1120.549 1.427h-657.369c-21.912 0-36.52 14.608-36.52 36.52v949.532c0 21.911 14.608 36.52 36.52 36.52h657.369c21.911 0 36.52-14.608 36.52-36.52v-949.532c0-21.912-14.608-36.52-36.52-36.52M828.386 622.275c-21.911 0-36.52-14.608-36.52-36.522 0-21.911 14.608-36.52 36.52-36.52 21.912 0 36.522 14.608 36.522 36.52-0.001 21.914-14.61 36.522-36.522 36.522M1010.988 658.795c-43.825 0-73.040-29.216-73.040-73.041s29.215-73.041 73.040-73.041c43.826 0 73.041 29.216 73.041 73.041s-29.216 73.041-73.041 73.041M1084.029 439.672h-584.328v-146.082h584.328v146.082zM1084.029 220.549h-584.328v-146.082h584.328v146.082z" p-id="5382"></path>
  <path class="uyun-show-server-host010" d="M584.327668 585.754249" p-id="5383"></path>
</svg>