<?xml version="1.0" standalone="no"?><!DOCTYPE svg PUBLIC "-//W3C//DTD SVG 1.1//EN" "http://www.w3.org/Graphics/SVG/1.1/DTD/svg11.dtd">
<svg t="1495779539507" class="icon" style="" viewBox="0 0 1024 1024" version="1.1" xmlns="http://www.w3.org/2000/svg" p-id="17619" xmlns:xlink="http://www.w3.org/1999/xlink" width="64" height="64">
  <defs>
    <style type="text/css">
      .uyun-show-firewall-host004{
        fill:#d5827c
      }
      .uyun-show-firewall-host005{
        fill:#ffc436
      }
    </style></defs>
  <path class="uyun-show-firewall-host004" d="M699.84 234.304l-0.576-9.984c-1.344-0.256-2.688-0.832-4.096-0.832H435.52a24.576 24.576 0 0 0-24.448 24.512v127.808c0 13.568 11.008 24.576 24.448 24.576h209.728c58.496-72.832 54.656-165.12 54.592-166.08zM110.208 400.384H346.24a24.704 24.704 0 0 0 24.64-24.576V248a24.64 24.64 0 0 0-24.64-24.512H110.208a24.576 24.576 0 0 0-24.512 24.512v127.808c0 13.568 11.008 24.576 24.512 24.576zM507.072 614.976c9.856-67.84 58.24-128 101.888-175.04a25.664 25.664 0 0 0-9.216-1.792H102.912a24.576 24.576 0 0 0-24.512 24.448v128c0 13.504 11.072 24.448 24.512 24.448h404.16zM346.24 652.288H110.208a24.576 24.576 0 0 0-24.512 24.512v127.936c0 13.44 11.008 24.512 24.512 24.512H346.24a24.704 24.704 0 0 0 24.64-24.512v-127.936a24.64 24.64 0 0 0-24.64-24.512zM511.872 686.528a172.16 172.16 0 0 1-6.08-34.176H435.52a24.64 24.64 0 0 0-24.448 24.512v127.936c0 13.44 11.008 24.512 24.448 24.512h186.304a244.864 244.864 0 0 1-109.952-142.784z" p-id="17620"></path>
  <path class="uyun-show-firewall-host005" d="M988.16 568.128c-22.272-212.416-255.552-334.464-255.552-334.464s6.656 115.392-74.112 199.68c-68.352 71.36-141.76 154.688-114.88 246.464a216.32 216.32 0 0 0 154.496 149.952c-16.128-57.728-31.168-102.464 20.608-164.16 57.28-68.416 77.12-135.68 77.12-135.68 8.448 0.832 108.864 155.712 40.896 279.552 73.408-33.792 165.696-104.064 151.424-241.344z" p-id="17621"></path>
</svg>