<?xml version="1.0" standalone="no"?><!DOCTYPE svg PUBLIC "-//W3C//DTD SVG 1.1//EN" "http://www.w3.org/Graphics/SVG/1.1/DTD/svg11.dtd">
<svg t="1495767223201" class="icon" style="" viewBox="0 0 1024 1024" version="1.1" xmlns="http://www.w3.org/2000/svg" p-id="4378" xmlns:xlink="http://www.w3.org/1999/xlink" width="64" height="64">
  <defs>
    <style type="text/css">
      .uyun-show-server-host003{
        fill:#a4fff7
      }
    </style></defs>
  <path class="uyun-show-server-host003" d="M746.352 224.386c0 29.396 23.863 53.262 53.262 53.262s53.262-23.863 53.262-53.262-23.863-53.262-53.262-53.262c-29.396 0-53.262 23.863-53.262 53.262z m0 340.875c0 29.396 23.863 53.264 53.262 53.264s53.262-23.866 53.262-53.264c0-29.401-23.863-53.26-53.262-53.26-29.396 0-53.262 23.862-53.262 53.26zM0.686 703.742c0 47.085 38.134 85.219 85.219 85.219h362.181v58.797a97.369 97.369 0 0 0-26.422 26.425H160.473c-29.396 0-53.262 23.862-53.262 53.26s23.863 53.264 53.262 53.264h261.191c17.247 25.778 46.439 42.609 79.684 42.609s62.416-16.828 79.684-42.609h282.497c29.396 0 53.262-23.866 53.262-53.264s-23.863-53.26-53.262-53.26H581.03a97.383 97.383 0 0 0-26.422-26.425v-58.797h383.487c47.083 0 85.219-38.132 85.219-85.219V85.904c0-47.082-38.134-85.217-85.219-85.217H85.905C38.822 0.687 0.686 38.821 0.686 85.904v617.838z m153.397-596.531h715.83a46.744 46.744 0 0 1 46.875 46.875v140.599a46.746 46.746 0 0 1-46.875 46.875h-715.83a46.744 46.744 0 0 1-46.875-46.875V154.086a46.745 46.745 0 0 1 46.875-46.875z m0 340.873h715.83a46.745 46.745 0 0 1 46.875 46.875v140.603a46.748 46.748 0 0 1-46.875 46.877h-715.83a46.745 46.745 0 0 1-46.875-46.877V494.959a46.747 46.747 0 0 1 46.875-46.875z" p-id="4379"></path>
</svg>